<?xml version="1.0" encoding="UTF-8" standalone="no"?>
<!DOCTYPE svg PUBLIC "-//W3C//DTD SVG 1.1//EN" "http://www.w3.org/Graphics/SVG/1.1/DTD/svg11.dtd">
<svg xmlns="http://www.w3.org/2000/svg" version="1.1" viewBox="0.00 0.00 550.00 550.00">
<g stroke-width="2.00" fill="none" stroke-linecap="butt">
<path stroke="#98c0a5" vector-effect="non-scaling-stroke" d="
  M 483.96 284.72
  Q 483.69 284.08 483.39 282.71
  Q 480.84 271.41 478.60 260.64
  A 1.19 1.18 -11.0 0 1 479.55 259.24
  Q 493.55 256.72 506.25 253.71
  Q 509.84 252.86 509.30 249.25
  Q 507.35 236.15 504.22 221.75
  A 0.96 0.95 82.3 0 0 503.23 220.99
  C 501.89 221.06 500.27 220.84 498.94 221.22
  Q 485.90 225.02 472.70 226.81
  A 1.12 1.12 0.0 0 1 471.51 226.13
  Q 467.44 216.17 465.98 205.53
  Q 465.90 204.98 466.45 204.87
  Q 486.79 200.61 498.74 198.96
  C 502.38 198.46 504.80 197.24 504.70 193.11
  C 504.47 184.10 502.05 176.66 498.30 167.53
  Q 498.11 167.05 497.59 167.10
  C 477.40 169.19 450.68 175.81 427.10 180.87
  Q 426.66 180.97 426.46 181.37
  Q 423.80 186.71 424.78 190.99
  Q 439.22 253.60 453.15 316.32
  C 453.64 318.50 453.53 323.67 455.99 325.69
  Q 456.37 326.00 456.86 325.92
  Q 493.28 319.72 528.84 309.74
  Q 529.35 309.60 529.57 309.12
  C 530.80 306.54 530.05 304.27 529.90 301.86
  Q 529.13 289.94 523.99 279.14
  A 0.86 0.86 0.0 0 0 523.23 278.65
  Q 520.71 278.60 518.23 279.14
  Q 502.26 282.55 485.64 285.63
  A 1.53 1.52 -16.4 0 1 483.96 284.72"
/>
<path stroke="#98c0a5" vector-effect="non-scaling-stroke" d="
  M 377.56 292.44
  A 0.22 0.21 25.1 0 1 377.96 292.30
  Q 389.89 311.69 401.88 330.85
  Q 404.41 334.90 408.29 337.84
  A 1.18 1.15 57.7 0 0 409.22 338.06
  C 414.19 337.12 439.57 332.38 441.90 327.35
  Q 442.77 325.47 441.66 323.79
  Q 423.24 295.94 404.83 267.85
  Q 404.52 267.37 405.03 267.12
  Q 422.15 258.79 423.53 240.04
  C 425.20 217.35 414.27 186.86 385.94 190.15
  Q 370.69 191.92 357.86 194.54
  C 345.94 196.96 332.44 201.56 319.75 205.26
  Q 319.26 205.40 319.17 205.90
  Q 318.56 209.20 319.07 211.44
  Q 326.57 244.46 349.27 340.24
  C 349.78 342.39 351.82 348.61 354.67 348.15
  Q 364.45 346.54 383.31 341.90
  C 386.42 341.13 388.87 339.84 387.77 336.24
  Q 381.18 314.63 377.56 292.44"
/>
<path stroke="#98c0a5" vector-effect="non-scaling-stroke" d="
  M 300.34 281.18
  A 0.44 0.44 0.0 0 1 300.04 280.44
  C 312.05 267.34 316.91 248.15 308.82 232.04
  C 300.52 215.51 284.41 212.70 267.50 213.51
  Q 240.51 214.81 218.81 223.05
  C 211.95 225.65 215.49 239.87 216.65 244.95
  Q 229.37 300.99 242.17 357.02
  C 243.24 361.72 242.78 368.63 249.51 368.90
  Q 259.64 369.30 267.76 367.80
  C 285.05 364.59 305.36 360.41 320.30 351.55
  C 334.74 342.98 335.90 329.37 332.99 314.22
  C 329.63 296.69 319.57 282.46 300.34 281.18"
/>
<path stroke="#a5acd2" vector-effect="non-scaling-stroke" d="
  M 213.36 278.09
  C 208.86 260.67 199.37 247.80 182.48 240.75
  C 167.49 234.50 140.96 242.02 126.53 248.26
  C 118.02 251.94 112.50 258.24 109.53 266.74
  Q 107.56 272.39 107.72 282.49
  C 108.04 302.43 113.60 321.79 120.22 344.80
  C 124.49 359.65 130.98 373.82 142.83 384.17
  C 155.81 395.52 187.72 386.49 201.54 381.30
  C 222.64 373.39 227.09 354.43 225.09 333.82
  C 223.25 314.95 218.08 296.40 213.36 278.09"
/>
<path stroke="#98c0a5" vector-effect="non-scaling-stroke" d="
  M 14.89 318.69
  C 18.67 330.51 24.35 337.74 35.45 343.28
  Q 46.21 348.66 57.33 353.15
  C 66.09 356.69 72.00 358.36 74.09 366.45
  C 74.85 369.41 72.73 372.77 69.97 374.19
  C 59.76 379.46 50.52 370.65 43.52 364.83
  C 36.08 358.63 27.89 387.28 27.00 392.25
  Q 26.88 392.97 27.04 394.39
  Q 27.09 394.85 27.45 395.14
  C 42.68 407.39 59.20 412.90 78.75 409.75
  C 107.07 405.20 120.46 374.56 109.46 349.45
  C 101.64 331.62 81.24 321.93 63.88 315.52
  C 55.41 312.40 43.40 307.19 46.90 295.90
  Q 47.07 295.36 47.54 295.04
  C 55.68 289.50 71.22 300.52 76.72 306.17
  A 0.89 0.88 -47.5 0 0 78.04 306.11
  C 84.47 298.29 91.58 289.92 95.71 280.72
  Q 95.93 280.23 95.54 279.85
  C 85.64 270.42 73.65 261.82 59.24 261.01
  C 52.98 260.66 45.95 262.58 39.71 264.44
  C 16.64 271.31 7.97 297.04 14.89 318.69"
/>
<path stroke="#98c0a5" vector-effect="non-scaling-stroke" d="
  M 368.23 254.89
  C 375.53 254.49 392.52 248.03 390.42 238.07
  C 388.61 229.43 386.02 220.98 376.08 219.44
  C 371.27 218.69 365.09 220.74 360.06 222.07
  Q 359.54 222.21 359.67 222.72
  Q 363.12 237.23 366.45 251.77
  Q 366.76 253.09 367.51 254.49
  A 0.77 0.76 -15.7 0 0 368.23 254.89"
/>
<path stroke="#98c0a5" vector-effect="non-scaling-stroke" d="
  M 261.47 271.59
  C 269.01 272.21 276.59 267.44 278.29 259.97
  C 279.22 255.83 278.16 251.35 276.81 247.19
  C 273.18 235.99 262.39 238.69 254.38 242.13
  Q 252.84 242.79 253.31 244.41
  Q 256.93 256.77 259.21 267.75
  Q 259.67 269.95 260.53 271.08
  A 1.34 1.30 -15.6 0 0 261.47 271.59"
/>
<path stroke="#98c0a5" vector-effect="non-scaling-stroke" d="
  M 278.76 337.58
  C 279.40 337.74 280.11 337.99 280.78 337.93
  C 290.29 337.01 300.30 334.64 300.54 323.29
  C 300.61 319.58 299.09 316.58 297.73 312.76
  C 292.50 298.16 281.34 301.03 269.67 304.30
  A 0.85 0.84 79.2 0 0 269.06 305.21
  Q 271.01 321.58 277.67 336.66
  A 1.62 1.61 85.0 0 0 278.76 337.58"
/>
<path stroke="#a5acd2" vector-effect="non-scaling-stroke" d="
  M 153.06 335.61
  C 157.35 349.84 160.95 357.55 177.82 353.34
  C 191.02 350.04 191.24 339.45 188.82 328.24
  Q 184.55 308.37 179.69 288.66
  Q 177.61 280.20 175.80 277.77
  C 170.15 270.18 160.99 273.34 152.51 275.51
  C 146.65 277.02 144.51 280.19 144.18 286.33
  Q 143.77 293.96 144.63 298.07
  C 147.25 310.53 149.38 323.44 153.06 335.61"
/>
</g>
<path fill="#ffffff" d="
  M 421.43 202.90
  C 420.43 198.00 418.10 191.98 418.69 187.03
  Q 419.39 181.16 420.91 178.38
  C 422.71 175.07 426.96 174.90 430.30 174.14
  C 442.12 171.44 451.12 169.48 465.80 166.15
  Q 484.21 161.96 497.00 160.98
  C 500.56 160.70 503.37 163.82 504.67 167.19
  C 507.16 173.65 509.80 180.94 510.40 187.87
  C 510.65 190.66 511.30 193.77 510.53 196.36
  Q 508.45 203.36 500.25 204.76
  Q 486.62 207.09 472.99 209.50
  Q 472.46 209.60 472.61 210.12
  L 475.45 219.98
  Q 475.61 220.55 476.20 220.44
  Q 485.87 218.54 495.38 216.08
  C 505.09 213.56 509.06 214.61 511.00 224.64
  Q 513.22 236.20 515.27 247.74
  Q 515.96 251.69 513.57 255.86
  C 510.93 260.48 492.97 262.82 485.98 264.07
  Q 485.41 264.18 485.53 264.75
  L 488.44 278.68
  A 0.45 0.45 0.0 0 0 488.96 279.03
  Q 503.56 276.05 518.15 273.16
  Q 522.46 272.30 524.52 272.81
  C 531.77 274.62 534.93 292.05 535.68 298.70
  C 536.32 304.46 537.77 313.50 530.20 315.59
  Q 495.59 325.15 460.24 331.46
  C 454.36 332.51 450.24 330.80 448.80 324.82
  Q 448.70 324.40 448.32 324.60
  Q 448.06 324.74 448.08 325.11
  C 448.65 334.85 438.38 336.90 431.14 338.95
  Q 414.60 343.65 409.99 344.03
  C 403.50 344.55 401.48 339.35 397.47 335.33
  A 2.13 2.13 0.0 0 0 393.85 337.05
  C 394.51 343.80 390.00 346.39 383.89 347.89
  Q 370.18 351.26 356.31 353.81
  C 348.99 355.16 344.84 348.48 343.70 342.23
  Q 343.59 341.65 343.06 341.92
  C 339.45 343.74 336.42 344.94 333.61 348.13
  Q 326.71 355.95 316.78 360.27
  C 301.50 366.91 285.09 370.53 268.94 373.69
  Q 262.38 374.98 250.52 374.88
  Q 240.75 374.79 237.94 366.69
  Q 237.78 366.23 237.31 366.35
  L 225.75 369.42
  A 1.37 1.34 -81.8 0 0 224.90 370.07
  Q 218.86 380.67 208.43 384.94
  C 191.42 391.90 166.06 399.10 147.21 393.71
  C 145.90 393.34 143.72 391.87 142.07 392.33
  Q 124.75 397.15 107.42 401.87
  Q 106.38 402.15 105.61 402.88
  C 92.47 415.25 71.98 419.49 55.24 415.52
  Q 39.31 411.74 24.96 400.77
  C 21.19 397.89 20.42 395.35 21.28 390.52
  C 22.82 381.93 30.42 356.26 42.21 357.86
  C 49.03 358.78 61.09 375.15 67.36 368.65
  A 2.20 2.19 47.4 0 0 67.48 365.74
  C 65.44 363.27 63.59 361.94 60.38 360.73
  Q 47.88 356.02 31.98 348.26
  C 6.88 336.01 0.99 304.02 11.81 280.61
  C 17.08 269.21 26.54 262.32 38.87 258.51
  C 46.98 256.00 55.66 253.97 64.01 255.35
  Q 77.24 257.53 87.78 265.76
  A 1.83 1.81 -39.9 0 0 89.76 265.93
  Q 98.04 261.45 106.47 256.71
  Q 108.22 255.72 109.61 253.85
  Q 115.04 246.49 123.61 242.93
  Q 144.90 234.10 165.02 232.55
  Q 182.77 231.17 196.56 241.85
  A 1.15 1.14 -46.7 0 0 198.01 241.80
  L 207.89 233.16
  Q 208.25 232.84 208.28 232.36
  C 208.55 227.26 210.40 219.89 215.83 217.79
  Q 235.78 210.08 256.93 208.11
  C 275.77 206.35 294.04 205.83 308.29 220.41
  Q 308.67 220.80 309.19 220.64
  L 314.25 219.06
  A 0.58 0.58 0.0 0 0 314.63 218.33
  C 312.94 212.83 310.41 201.93 317.93 199.68
  C 338.65 193.49 357.37 187.26 380.19 184.67
  Q 393.06 183.21 399.28 184.79
  C 408.43 187.10 417.29 194.01 421.28 202.95
  Q 421.58 203.64 421.43 202.90
  Z
  M 483.96 284.72
  Q 483.69 284.08 483.39 282.71
  Q 480.84 271.41 478.60 260.64
  A 1.19 1.18 -11.0 0 1 479.55 259.24
  Q 493.55 256.72 506.25 253.71
  Q 509.84 252.86 509.30 249.25
  Q 507.35 236.15 504.22 221.75
  A 0.96 0.95 82.3 0 0 503.23 220.99
  C 501.89 221.06 500.27 220.84 498.94 221.22
  Q 485.90 225.02 472.70 226.81
  A 1.12 1.12 0.0 0 1 471.51 226.13
  Q 467.44 216.17 465.98 205.53
  Q 465.90 204.98 466.45 204.87
  Q 486.79 200.61 498.74 198.96
  C 502.38 198.46 504.80 197.24 504.70 193.11
  C 504.47 184.10 502.05 176.66 498.30 167.53
  Q 498.11 167.05 497.59 167.10
  C 477.40 169.19 450.68 175.81 427.10 180.87
  Q 426.66 180.97 426.46 181.37
  Q 423.80 186.71 424.78 190.99
  Q 439.22 253.60 453.15 316.32
  C 453.64 318.50 453.53 323.67 455.99 325.69
  Q 456.37 326.00 456.86 325.92
  Q 493.28 319.72 528.84 309.74
  Q 529.35 309.60 529.57 309.12
  C 530.80 306.54 530.05 304.27 529.90 301.86
  Q 529.13 289.94 523.99 279.14
  A 0.86 0.86 0.0 0 0 523.23 278.65
  Q 520.71 278.60 518.23 279.14
  Q 502.26 282.55 485.64 285.63
  A 1.53 1.52 -16.4 0 1 483.96 284.72
  Z
  M 377.56 292.44
  A 0.22 0.21 25.1 0 1 377.96 292.30
  Q 389.89 311.69 401.88 330.85
  Q 404.41 334.90 408.29 337.84
  A 1.18 1.15 57.7 0 0 409.22 338.06
  C 414.19 337.12 439.57 332.38 441.90 327.35
  Q 442.77 325.47 441.66 323.79
  Q 423.24 295.94 404.83 267.85
  Q 404.52 267.37 405.03 267.12
  Q 422.15 258.79 423.53 240.04
  C 425.20 217.35 414.27 186.86 385.94 190.15
  Q 370.69 191.92 357.86 194.54
  C 345.94 196.96 332.44 201.56 319.75 205.26
  Q 319.26 205.40 319.17 205.90
  Q 318.56 209.20 319.07 211.44
  Q 326.57 244.46 349.27 340.24
  C 349.78 342.39 351.82 348.61 354.67 348.15
  Q 364.45 346.54 383.31 341.90
  C 386.42 341.13 388.87 339.84 387.77 336.24
  Q 381.18 314.63 377.56 292.44
  Z
  M 300.34 281.18
  A 0.44 0.44 0.0 0 1 300.04 280.44
  C 312.05 267.34 316.91 248.15 308.82 232.04
  C 300.52 215.51 284.41 212.70 267.50 213.51
  Q 240.51 214.81 218.81 223.05
  C 211.95 225.65 215.49 239.87 216.65 244.95
  Q 229.37 300.99 242.17 357.02
  C 243.24 361.72 242.78 368.63 249.51 368.90
  Q 259.64 369.30 267.76 367.80
  C 285.05 364.59 305.36 360.41 320.30 351.55
  C 334.74 342.98 335.90 329.37 332.99 314.22
  C 329.63 296.69 319.57 282.46 300.34 281.18
  Z
  M 213.36 278.09
  C 208.86 260.67 199.37 247.80 182.48 240.75
  C 167.49 234.50 140.96 242.02 126.53 248.26
  C 118.02 251.94 112.50 258.24 109.53 266.74
  Q 107.56 272.39 107.72 282.49
  C 108.04 302.43 113.60 321.79 120.22 344.80
  C 124.49 359.65 130.98 373.82 142.83 384.17
  C 155.81 395.52 187.72 386.49 201.54 381.30
  C 222.64 373.39 227.09 354.43 225.09 333.82
  C 223.25 314.95 218.08 296.40 213.36 278.09
  Z
  M 14.89 318.69
  C 18.67 330.51 24.35 337.74 35.45 343.28
  Q 46.21 348.66 57.33 353.15
  C 66.09 356.69 72.00 358.36 74.09 366.45
  C 74.85 369.41 72.73 372.77 69.97 374.19
  C 59.76 379.46 50.52 370.65 43.52 364.83
  C 36.08 358.63 27.89 387.28 27.00 392.25
  Q 26.88 392.97 27.04 394.39
  Q 27.09 394.85 27.45 395.14
  C 42.68 407.39 59.20 412.90 78.75 409.75
  C 107.07 405.20 120.46 374.56 109.46 349.45
  C 101.64 331.62 81.24 321.93 63.88 315.52
  C 55.41 312.40 43.40 307.19 46.90 295.90
  Q 47.07 295.36 47.54 295.04
  C 55.68 289.50 71.22 300.52 76.72 306.17
  A 0.89 0.88 -47.5 0 0 78.04 306.11
  C 84.47 298.29 91.58 289.92 95.71 280.72
  Q 95.93 280.23 95.54 279.85
  C 85.64 270.42 73.65 261.82 59.24 261.01
  C 52.98 260.66 45.95 262.58 39.71 264.44
  C 16.64 271.31 7.97 297.04 14.89 318.69
  Z"
/>
<path fill="#31804b" d="
  M 483.96 284.72
  A 1.53 1.52 -16.4 0 0 485.64 285.63
  Q 502.26 282.55 518.23 279.14
  Q 520.71 278.60 523.23 278.65
  A 0.86 0.86 0.0 0 1 523.99 279.14
  Q 529.13 289.94 529.90 301.86
  C 530.05 304.27 530.80 306.54 529.57 309.12
  Q 529.35 309.60 528.84 309.74
  Q 493.28 319.72 456.86 325.92
  Q 456.37 326.00 455.99 325.69
  C 453.53 323.67 453.64 318.50 453.15 316.32
  Q 439.22 253.60 424.78 190.99
  Q 423.80 186.71 426.46 181.37
  Q 426.66 180.97 427.10 180.87
  C 450.68 175.81 477.40 169.19 497.59 167.10
  Q 498.11 167.05 498.30 167.53
  C 502.05 176.66 504.47 184.10 504.70 193.11
  C 504.80 197.24 502.38 198.46 498.74 198.96
  Q 486.79 200.61 466.45 204.87
  Q 465.90 204.98 465.98 205.53
  Q 467.44 216.17 471.51 226.13
  A 1.12 1.12 0.0 0 0 472.70 226.81
  Q 485.90 225.02 498.94 221.22
  C 500.27 220.84 501.89 221.06 503.23 220.99
  A 0.96 0.95 82.3 0 1 504.22 221.75
  Q 507.35 236.15 509.30 249.25
  Q 509.84 252.86 506.25 253.71
  Q 493.55 256.72 479.55 259.24
  A 1.19 1.18 -11.0 0 0 478.60 260.64
  Q 480.84 271.41 483.39 282.71
  Q 483.69 284.08 483.96 284.72
  Z"
/>
<path fill="#31804b" d="
  M 377.56 292.44
  Q 381.18 314.63 387.77 336.24
  C 388.87 339.84 386.42 341.13 383.31 341.90
  Q 364.45 346.54 354.67 348.15
  C 351.82 348.61 349.78 342.39 349.27 340.24
  Q 326.57 244.46 319.07 211.44
  Q 318.56 209.20 319.17 205.90
  Q 319.26 205.40 319.75 205.26
  C 332.44 201.56 345.94 196.96 357.86 194.54
  Q 370.69 191.92 385.94 190.15
  C 414.27 186.86 425.20 217.35 423.53 240.04
  Q 422.15 258.79 405.03 267.12
  Q 404.52 267.37 404.83 267.85
  Q 423.24 295.94 441.66 323.79
  Q 442.77 325.47 441.90 327.35
  C 439.57 332.38 414.19 337.12 409.22 338.06
  A 1.18 1.15 57.7 0 1 408.29 337.84
  Q 404.41 334.90 401.88 330.85
  Q 389.89 311.69 377.96 292.30
  A 0.22 0.21 25.1 0 0 377.56 292.44
  Z
  M 368.23 254.89
  C 375.53 254.49 392.52 248.03 390.42 238.07
  C 388.61 229.43 386.02 220.98 376.08 219.44
  C 371.27 218.69 365.09 220.74 360.06 222.07
  Q 359.54 222.21 359.67 222.72
  Q 363.12 237.23 366.45 251.77
  Q 366.76 253.09 367.51 254.49
  A 0.77 0.76 -15.7 0 0 368.23 254.89
  Z"
/>
<path fill="#31804b" d="
  M 300.34 281.18
  C 319.57 282.46 329.63 296.69 332.99 314.22
  C 335.90 329.37 334.74 342.98 320.30 351.55
  C 305.36 360.41 285.05 364.59 267.76 367.80
  Q 259.64 369.30 249.51 368.90
  C 242.78 368.63 243.24 361.72 242.17 357.02
  Q 229.37 300.99 216.65 244.95
  C 215.49 239.87 211.95 225.65 218.81 223.05
  Q 240.51 214.81 267.50 213.51
  C 284.41 212.70 300.52 215.51 308.82 232.04
  C 316.91 248.15 312.05 267.34 300.04 280.44
  A 0.44 0.44 0.0 0 0 300.34 281.18
  Z
  M 261.47 271.59
  C 269.01 272.21 276.59 267.44 278.29 259.97
  C 279.22 255.83 278.16 251.35 276.81 247.19
  C 273.18 235.99 262.39 238.69 254.38 242.13
  Q 252.84 242.79 253.31 244.41
  Q 256.93 256.77 259.21 267.75
  Q 259.67 269.95 260.53 271.08
  A 1.34 1.30 -15.6 0 0 261.47 271.59
  Z
  M 278.76 337.58
  C 279.40 337.74 280.11 337.99 280.78 337.93
  C 290.29 337.01 300.30 334.64 300.54 323.29
  C 300.61 319.58 299.09 316.58 297.73 312.76
  C 292.50 298.16 281.34 301.03 269.67 304.30
  A 0.85 0.84 79.2 0 0 269.06 305.21
  Q 271.01 321.58 277.67 336.66
  A 1.62 1.61 85.0 0 0 278.76 337.58
  Z"
/>
<path fill="#ffffff" d="
  M 390.42 238.07
  C 392.52 248.03 375.53 254.49 368.23 254.89
  A 0.77 0.76 -15.7 0 1 367.51 254.49
  Q 366.76 253.09 366.45 251.77
  Q 363.12 237.23 359.67 222.72
  Q 359.54 222.21 360.06 222.07
  C 365.09 220.74 371.27 218.69 376.08 219.44
  C 386.02 220.98 388.61 229.43 390.42 238.07
  Z"
/>
<path fill="#4b58a4" d="
  M 182.48 240.75
  C 199.37 247.80 208.86 260.67 213.36 278.09
  C 218.08 296.40 223.25 314.95 225.09 333.82
  C 227.09 354.43 222.64 373.39 201.54 381.30
  C 187.72 386.49 155.81 395.52 142.83 384.17
  C 130.98 373.82 124.49 359.65 120.22 344.80
  C 113.60 321.79 108.04 302.43 107.72 282.49
  Q 107.56 272.39 109.53 266.74
  C 112.50 258.24 118.02 251.94 126.53 248.26
  C 140.96 242.02 167.49 234.50 182.48 240.75
  Z
  M 153.06 335.61
  C 157.35 349.84 160.95 357.55 177.82 353.34
  C 191.02 350.04 191.24 339.45 188.82 328.24
  Q 184.55 308.37 179.69 288.66
  Q 177.61 280.20 175.80 277.77
  C 170.15 270.18 160.99 273.34 152.51 275.51
  C 146.65 277.02 144.51 280.19 144.18 286.33
  Q 143.77 293.96 144.63 298.07
  C 147.25 310.53 149.38 323.44 153.06 335.61
  Z"
/>
<path fill="#ffffff" d="
  M 260.53 271.08
  Q 259.67 269.95 259.21 267.75
  Q 256.93 256.77 253.31 244.41
  Q 252.84 242.79 254.38 242.13
  C 262.39 238.69 273.18 235.99 276.81 247.19
  C 278.16 251.35 279.22 255.83 278.29 259.97
  C 276.59 267.44 269.01 272.21 261.47 271.59
  A 1.34 1.30 -15.6 0 1 260.53 271.08
  Z"
/>
<path fill="#31804b" d="
  M 35.45 343.28
  C 24.35 337.74 18.67 330.51 14.89 318.69
  C 7.97 297.04 16.64 271.31 39.71 264.44
  C 45.95 262.58 52.98 260.66 59.24 261.01
  C 73.65 261.82 85.64 270.42 95.54 279.85
  Q 95.93 280.23 95.71 280.72
  C 91.58 289.92 84.47 298.29 78.04 306.11
  A 0.89 0.88 -47.5 0 1 76.72 306.17
  C 71.22 300.52 55.68 289.50 47.54 295.04
  Q 47.07 295.36 46.90 295.90
  C 43.40 307.19 55.41 312.40 63.88 315.52
  C 81.24 321.93 101.64 331.62 109.46 349.45
  C 120.46 374.56 107.07 405.20 78.75 409.75
  C 59.20 412.90 42.68 407.39 27.45 395.14
  Q 27.09 394.85 27.04 394.39
  Q 26.88 392.97 27.00 392.25
  C 27.89 387.28 36.08 358.63 43.52 364.83
  C 50.52 370.65 59.76 379.46 69.97 374.19
  C 72.73 372.77 74.85 369.41 74.09 366.45
  C 72.00 358.36 66.09 356.69 57.33 353.15
  Q 46.21 348.66 35.45 343.28
  Z"
/>
<path fill="#ffffff" d="
  M 177.82 353.34
  C 160.95 357.55 157.35 349.84 153.06 335.61
  C 149.38 323.44 147.25 310.53 144.63 298.07
  Q 143.77 293.96 144.18 286.33
  C 144.51 280.19 146.65 277.02 152.51 275.51
  C 160.99 273.34 170.15 270.18 175.80 277.77
  Q 177.61 280.20 179.69 288.66
  Q 184.55 308.37 188.82 328.24
  C 191.24 339.45 191.02 350.04 177.82 353.34
  Z"
/>
<path fill="#ffffff" d="
  M 278.76 337.58
  A 1.62 1.61 85.0 0 1 277.67 336.66
  Q 271.01 321.58 269.06 305.21
  A 0.85 0.84 79.2 0 1 269.67 304.30
  C 281.34 301.03 292.50 298.16 297.73 312.76
  C 299.09 316.58 300.61 319.58 300.54 323.29
  C 300.30 334.64 290.29 337.01 280.78 337.93
  C 280.11 337.99 279.40 337.74 278.76 337.58
  Z"
/>
</svg>
