<?xml version="1.0" encoding="UTF-8" standalone="no"?>
<!DOCTYPE svg PUBLIC "-//W3C//DTD SVG 1.1//EN" "http://www.w3.org/Graphics/SVG/1.1/DTD/svg11.dtd">
<svg xmlns="http://www.w3.org/2000/svg" version="1.1" viewBox="0.00 0.00 500.00 500.00">
<g stroke-width="2.00" fill="none" stroke-linecap="butt">
<path stroke="#8fb49c" vector-effect="non-scaling-stroke" d="
  M 450.02 87.70
  Q 446.44 76.79 442.25 66.11
  C 436.90 52.47 419.86 38.67 404.29 39.91
  C 384.29 41.51 361.99 47.38 346.10 59.96
  C 342.78 62.58 341.08 69.84 339.88 73.81
  C 337.56 81.48 338.30 94.08 339.48 101.99
  C 343.02 125.57 347.27 145.10 356.66 168.32
  C 360.29 177.30 365.48 187.15 372.37 194.44
  C 382.61 205.28 403.43 205.22 416.45 201.05
  C 417.93 200.58 419.47 200.95 420.70 200.70
  C 427.46 199.32 438.06 197.24 444.35 193.54
  Q 457.68 185.69 461.02 170.09
  C 462.17 164.74 461.74 158.32 461.80 152.44
  Q 461.88 144.94 461.24 139.20
  Q 458.28 112.92 450.02 87.70"
/>
<path stroke="#8fb49c" vector-effect="non-scaling-stroke" d="
  M 326.03 77.39
  C 325.06 71.70 323.37 66.64 320.91 61.42
  A 1.57 1.57 0.0 0 0 319.11 60.57
  L 239.65 80.49
  Q 237.47 81.03 238.02 83.22
  L 245.78 114.04
  Q 246.22 115.77 247.96 115.35
  L 268.87 110.32
  Q 269.39 110.19 269.54 110.71
  Q 285.41 168.55 299.78 226.79
  Q 300.31 228.93 302.52 228.53
  C 308.67 227.41 315.11 224.14 321.40 223.51
  Q 330.26 222.62 337.43 216.58
  A 2.04 2.04 0.0 0 0 338.09 214.50
  L 308.55 101.22
  Q 308.40 100.61 309.00 100.44
  L 327.53 95.25
  A 2.22 2.22 0.0 0 0 329.09 92.63
  C 327.92 87.50 327.11 83.76 326.03 77.39"
/>
<path stroke="#8fb49c" vector-effect="non-scaling-stroke" d="
  M 201.29 219.96
  C 192.94 220.09 188.55 203.70 186.58 196.04
  Q 175.30 152.23 164.42 108.31
  C 162.84 101.94 157.41 103.14 152.32 104.85
  Q 148.00 106.30 143.59 107.47
  C 132.83 110.33 124.64 106.35 128.51 122.66
  C 136.07 154.57 144.73 186.04 153.71 217.64
  C 158.93 236.03 166.89 253.91 188.34 255.15
  Q 194.89 255.52 208.12 252.73
  C 219.86 250.25 232.35 247.35 243.20 241.70
  C 255.67 235.19 257.27 221.69 256.42 209.18
  Q 255.43 194.67 251.99 180.57
  Q 241.86 138.97 231.64 97.43
  C 230.67 93.51 229.02 90.19 225.22 89.18
  Q 222.92 88.56 217.93 89.94
  C 211.18 91.80 203.82 92.66 197.32 95.11
  C 194.52 96.16 192.92 98.02 193.20 101.00
  C 193.63 105.53 194.84 112.21 196.36 117.58
  Q 208.33 159.85 216.29 194.49
  Q 217.73 200.74 218.02 208.97
  C 218.33 217.52 208.05 219.85 201.29 219.96"
/>
<path stroke="#8fb49c" vector-effect="non-scaling-stroke" d="
  M 121.04 274.52
  C 126.10 273.01 133.21 272.17 131.28 264.99
  Q 117.13 212.43 102.20 158.24
  A 2.13 2.13 0.0 0 1 103.74 155.60
  L 123.98 150.58
  A 1.14 1.14 0.0 0 0 124.84 149.36
  C 123.93 140.43 121.73 132.42 118.68 123.94
  C 117.34 120.22 116.63 115.68 114.31 112.16
  A 0.74 0.72 65.8 0 0 113.52 111.85
  Q 62.15 124.77 34.82 131.83
  Q 32.10 132.53 29.27 134.26
  Q 28.85 134.51 28.69 134.98
  Q 27.80 137.57 28.44 140.06
  Q 30.95 149.65 35.30 164.19
  Q 36.80 169.19 38.98 172.25
  A 0.83 0.83 0.0 0 0 39.86 172.57
  L 60.32 166.96
  A 3.78 3.78 0.0 0 1 64.97 169.64
  Q 71.51 194.23 77.46 219.51
  Q 77.50 219.67 77.70 219.85
  Q 77.98 220.10 78.05 220.47
  Q 81.00 235.90 85.28 251.02
  C 87.91 260.31 89.84 269.80 92.42 278.97
  A 2.84 2.84 0.0 0 0 95.75 280.98
  Q 108.97 278.13 121.04 274.52"
/>
<path stroke="#9ca2c5" vector-effect="non-scaling-stroke" d="
  M 411.53 370.71
  C 420.44 368.44 431.81 366.45 441.84 363.77
  A 2.06 2.05 -8.7 0 0 443.36 361.71
  C 443.03 352.86 440.30 344.73 437.67 336.37
  Q 437.52 335.90 437.09 335.67
  Q 436.50 335.35 436.41 334.78
  C 435.46 328.86 431.93 330.38 427.38 331.46
  Q 421.29 332.90 415.25 334.51
  Q 414.55 334.70 413.66 334.33
  Q 413.25 334.16 412.83 334.27
  L 402.57 336.92
  Q 400.93 337.35 400.48 335.71
  L 369.50 224.06
  A 3.75 3.75 0.0 0 0 364.92 221.45
  C 362.04 222.22 359.17 222.50 356.36 223.41
  Q 348.50 225.96 340.52 228.12
  C 337.55 228.93 334.85 230.48 331.80 231.46
  A 1.29 1.27 -83.7 0 0 331.07 232.05
  Q 329.97 234.02 330.50 235.75
  Q 352.15 306.82 369.80 378.99
  Q 370.46 381.68 372.76 381.04
  Q 392.09 375.67 411.53 370.71"
/>
<path stroke="#9ca2c5" vector-effect="non-scaling-stroke" d="
  M 316.17 382.36
  Q 317.87 386.47 320.18 390.31
  A 2.68 2.67 -14.2 0 0 322.36 391.60
  C 332.06 392.03 340.61 389.47 352.45 386.01
  C 354.69 385.36 356.54 384.48 358.38 383.28
  A 1.47 1.46 59.9 0 0 358.88 381.38
  Q 343.74 352.06 328.83 322.47
  C 326.09 317.05 321.84 310.34 318.93 303.97
  C 309.53 283.42 298.80 263.43 288.34 243.00
  A 3.12 3.12 0.0 0 0 284.84 241.39
  Q 269.09 245.14 252.42 249.12
  Q 250.74 249.52 246.13 252.13
  C 243.86 253.42 241.67 253.73 239.22 254.53
  C 236.66 255.36 237.31 256.88 237.30 258.98
  C 237.25 270.59 238.28 283.73 238.49 293.69
  Q 239.76 352.66 242.28 411.61
  Q 242.30 412.13 242.78 412.33
  C 245.32 413.41 247.19 411.74 249.25 412.47
  Q 249.68 412.62 250.11 412.51
  L 266.82 408.12
  Q 267.29 407.99 267.56 407.58
  Q 267.87 407.13 268.75 406.97
  Q 274.37 405.98 280.13 401.86
  Q 281.49 400.89 281.45 399.94
  Q 280.93 388.19 280.71 376.44
  Q 280.70 375.93 281.19 375.80
  L 308.18 368.64
  Q 308.69 368.51 308.93 368.97
  L 315.72 382.02
  Q 315.81 382.19 315.81 382.19
  Q 315.95 382.23 316.09 382.28
  Q 316.15 382.30 316.17 382.36"
/>
<path stroke="#9ca2c5" vector-effect="non-scaling-stroke" d="
  M 215.83 421.12
  C 219.08 419.86 234.37 416.70 232.87 411.47
  C 219.32 364.29 205.54 317.14 193.70 269.51
  A 0.99 0.97 82.5 0 0 192.74 268.76
  C 181.82 268.80 167.73 273.46 157.37 277.03
  Q 156.88 277.20 156.74 277.69
  Q 156.21 279.44 156.70 281.27
  Q 175.87 352.79 196.08 422.96
  Q 196.59 424.75 198.46 424.67
  Q 207.72 424.28 215.83 421.12"
/>
<path stroke="#9ca2c5" vector-effect="non-scaling-stroke" d="
  M 113.06 393.35
  A 0.14 0.14 0.0 0 1 113.32 393.30
  Q 126.84 413.69 140.77 433.71
  Q 143.28 437.32 147.29 439.96
  Q 147.71 440.24 148.20 440.12
  Q 161.36 437.03 166.79 435.02
  C 172.95 432.74 178.98 432.00 182.43 427.45
  A 1.24 1.21 58.8 0 0 182.66 426.48
  Q 182.16 423.76 179.78 420.46
  Q 160.26 393.38 140.73 366.29
  Q 140.39 365.82 140.85 365.47
  Q 141.87 364.67 143.57 363.58
  Q 159.48 353.40 159.20 333.94
  C 158.95 315.92 150.07 287.64 128.80 284.38
  Q 125.71 283.91 121.43 284.96
  Q 109.37 287.93 97.31 290.89
  C 93.47 291.84 90.42 289.81 86.57 290.80
  C 79.19 292.70 72.23 294.79 65.15 297.43
  Q 56.56 300.63 47.97 303.26
  Q 46.61 303.68 46.70 305.11
  Q 46.90 308.17 47.72 311.19
  Q 66.00 378.33 84.87 445.31
  C 85.49 447.51 86.70 449.34 87.66 451.37
  A 3.07 3.07 0.0 0 0 91.19 453.04
  Q 106.03 449.26 121.72 445.07
  C 124.61 444.30 126.78 442.37 125.74 439.29
  C 119.99 422.28 117.13 410.84 113.22 396.26
  Q 112.83 394.81 113.06 393.35"
/>
<path stroke="#8fb49c" vector-effect="non-scaling-stroke" d="
  M 390.87 81.20
  C 380.54 84.68 375.77 88.24 377.66 100.26
  C 379.19 110.06 390.59 167.91 406.24 164.25
  C 418.77 161.32 428.90 160.86 425.09 144.48
  Q 420.08 122.94 414.55 101.53
  Q 411.83 90.99 407.47 84.31
  C 403.45 78.13 397.04 79.12 390.87 81.20"
/>
<path stroke="#9ca2c5" vector-effect="non-scaling-stroke" d="
  M 279.02 345.93
  A 0.35 0.35 0.0 0 0 279.46 346.26
  L 295.14 342.23
  A 0.35 0.35 0.0 0 0 295.37 341.74
  L 277.84 306.02
  A 0.35 0.35 0.0 0 0 277.18 306.19
  L 279.02 345.93"
/>
<path stroke="#9ca2c5" vector-effect="non-scaling-stroke" d="
  M 101.41 353.79
  C 109.04 353.11 119.30 348.41 122.97 341.15
  Q 124.16 338.78 124.01 337.50
  C 122.88 328.23 119.05 318.29 109.37 316.25
  C 103.90 315.09 96.39 318.00 91.00 319.73
  Q 90.55 319.88 90.68 320.34
  L 99.93 352.78
  A 1.42 1.41 -10.5 0 0 101.41 353.79"
/>
</g>
<path fill="#f0f0f0" d="
  M 135.44 443.54
  Q 134.83 448.45 131.44 451.71
  C 130.17 452.93 128.40 453.06 126.87 454.15
  Q 125.87 454.87 125.05 455.09
  Q 108.85 459.56 92.51 463.51
  C 86.75 464.91 80.56 459.77 77.86 455.23
  C 76.62 453.13 76.38 449.79 74.97 447.25
  Q 73.89 445.32 73.55 444.01
  Q 67.26 419.83 60.75 395.71
  C 60.25 393.87 59.18 392.33 58.71 390.56
  Q 52.77 368.01 46.75 345.49
  C 46.41 344.22 45.24 343.66 44.94 342.44
  Q 43.00 334.54 37.50 313.75
  C 36.23 308.94 36.12 301.01 39.77 297.02
  C 42.44 294.10 46.85 293.41 50.16 292.05
  C 54.01 290.46 56.34 289.72 59.71 288.89
  C 61.64 288.41 62.73 286.84 64.48 286.60
  Q 68.60 286.03 72.26 284.25
  C 75.88 282.50 78.60 282.01 82.19 280.98
  Q 82.72 280.83 82.58 280.30
  Q 79.76 269.12 77.04 258.00
  C 75.99 253.69 73.93 249.53 72.96 245.58
  Q 71.62 240.19 70.26 234.81
  C 69.82 233.06 70.27 231.43 69.86 229.78
  Q 63.58 204.25 57.11 178.76
  Q 56.99 178.25 56.49 178.39
  C 51.15 179.79 41.85 183.26 36.72 181.92
  C 26.55 179.27 24.27 162.54 21.98 153.56
  C 20.16 146.44 16.85 142.17 18.19 134.27
  C 19.02 129.41 23.87 124.42 28.76 123.18
  Q 53.88 116.82 78.99 110.47
  C 80.18 110.17 80.75 109.16 82.12 108.81
  Q 96.20 105.28 110.28 101.73
  C 114.69 100.62 117.66 101.33 120.78 104.35
  A 0.54 0.54 0.0 0 0 121.58 104.28
  Q 123.81 101.34 127.24 100.49
  Q 141.31 97.01 155.36 93.48
  C 158.95 92.58 161.36 93.55 164.72 94.43
  C 170.05 95.85 173.25 101.41 174.56 106.43
  A 0.76 0.76 0.0 0 0 175.31 107.00
  L 179.64 106.90
  A 0.66 0.66 0.0 0 0 180.21 106.57
  C 184.20 99.67 182.86 93.25 189.50 87.40
  Q 189.87 87.07 190.36 86.98
  C 192.52 86.57 193.72 85.20 195.57 84.63
  C 200.08 83.25 205.22 82.90 209.12 81.97
  Q 215.68 80.42 222.25 78.84
  C 224.15 78.38 225.85 79.01 227.76 79.20
  Q 228.25 79.25 228.36 78.78
  C 229.86 72.39 235.55 69.73 241.56 69.19
  Q 245.94 68.80 247.52 68.41
  Q 282.11 59.76 316.70 51.08
  C 325.11 48.97 331.10 55.06 332.41 62.80
  Q 332.48 63.21 332.69 62.85
  Q 332.82 62.61 332.84 62.34
  C 333.02 59.45 338.51 52.90 340.08 51.61
  Q 352.99 40.99 371.11 36.42
  C 372.21 36.14 372.61 35.16 373.67 34.90
  Q 379.14 33.56 384.60 32.16
  C 385.86 31.84 386.49 32.40 387.68 32.17
  C 391.54 31.43 395.39 30.09 399.32 30.07
  C 405.68 30.02 412.88 29.08 419.77 31.99
  C 433.69 37.88 447.24 48.11 452.03 62.70
  C 453.36 66.76 455.01 70.34 456.01 73.86
  C 457.12 77.78 459.02 81.27 459.94 85.06
  Q 460.62 87.90 461.37 90.71
  C 461.76 92.15 462.79 92.48 463.11 93.74
  Q 465.56 103.50 468.00 113.25
  Q 468.11 113.70 467.68 114.89
  Q 467.51 115.37 467.64 115.86
  C 468.66 119.74 469.63 123.29 470.07 127.40
  C 470.80 134.25 472.05 141.04 472.05 147.82
  C 472.06 157.20 473.28 171.78 468.77 180.04
  Q 467.40 182.56 467.08 184.16
  Q 466.99 184.63 466.70 185.02
  C 460.49 193.61 457.00 198.21 448.93 202.74
  Q 445.08 204.90 439.75 206.24
  Q 426.66 209.55 413.53 212.73
  C 411.70 213.17 410.31 212.44 408.65 213.00
  C 403.17 214.84 395.26 213.94 390.06 213.12
  C 387.39 212.70 384.51 212.92 381.70 211.01
  Q 381.38 210.79 380.99 210.85
  L 376.01 211.61
  A 1.33 1.33 0.0 0 0 374.97 213.42
  Q 375.89 215.75 377.59 217.58
  Q 377.94 217.96 378.05 218.46
  C 378.70 221.26 379.19 223.19 380.67 226.02
  Q 381.59 227.77 382.08 229.73
  Q 389.24 258.02 396.80 286.20
  C 397.53 288.90 398.91 291.08 399.49 293.34
  Q 403.52 309.22 407.86 325.00
  Q 408.00 325.50 408.49 325.36
  Q 412.46 324.23 416.38 323.20
  C 420.82 322.03 426.15 322.04 431.08 320.52
  C 438.36 318.26 444.68 326.05 446.71 331.98
  C 447.45 334.14 448.83 335.72 449.36 337.82
  Q 450.83 343.64 452.31 349.47
  C 453.13 352.73 452.85 356.43 453.93 359.99
  Q 454.08 360.48 453.95 360.97
  C 452.44 366.50 451.51 371.30 445.24 372.99
  Q 432.10 376.53 413.68 380.91
  C 412.66 381.16 411.35 380.91 410.13 381.20
  Q 401.53 383.23 393.02 385.63
  C 384.53 388.02 376.46 393.13 367.02 390.11
  Q 366.55 389.96 366.15 390.25
  Q 364.03 391.75 361.85 393.14
  C 359.54 394.62 356.73 394.64 354.21 396.01
  C 351.13 397.70 348.13 398.06 344.90 398.96
  Q 344.41 399.10 343.92 398.94
  Q 343.26 398.72 343.01 398.77
  C 337.85 399.85 332.41 401.87 327.21 401.95
  C 319.92 402.06 313.20 401.49 310.21 393.78
  C 307.27 386.19 298.07 387.80 293.18 392.03
  A 1.44 1.43 76.8 0 0 292.72 392.78
  Q 291.46 397.66 291.90 402.71
  Q 291.95 403.22 291.68 403.66
  Q 286.92 411.20 279.28 414.02
  Q 276.97 414.87 275.97 415.79
  A 0.98 0.97 16.3 0 1 275.58 416.00
  Q 262.56 419.46 249.51 422.81
  Q 245.75 423.77 239.64 422.09
  A 0.93 0.92 30.3 0 0 238.77 422.31
  Q 236.34 424.66 233.38 425.86
  C 224.33 429.52 217.80 431.11 205.94 434.18
  C 201.68 435.28 195.41 435.69 191.71 432.85
  Q 191.31 432.54 190.99 432.94
  Q 188.22 436.43 184.78 439.22
  C 183.23 440.48 181.75 440.17 180.08 441.08
  Q 177.79 442.33 174.50 443.25
  Q 159.67 447.37 150.20 449.70
  C 144.72 451.05 139.25 447.45 135.91 443.41
  Q 135.51 442.93 135.44 443.54
  Z
  M 450.02 87.70
  Q 446.44 76.79 442.25 66.11
  C 436.90 52.47 419.86 38.67 404.29 39.91
  C 384.29 41.51 361.99 47.38 346.10 59.96
  C 342.78 62.58 341.08 69.84 339.88 73.81
  C 337.56 81.48 338.30 94.08 339.48 101.99
  C 343.02 125.57 347.27 145.10 356.66 168.32
  C 360.29 177.30 365.48 187.15 372.37 194.44
  C 382.61 205.28 403.43 205.22 416.45 201.05
  C 417.93 200.58 419.47 200.95 420.70 200.70
  C 427.46 199.32 438.06 197.24 444.35 193.54
  Q 457.68 185.69 461.02 170.09
  C 462.17 164.74 461.74 158.32 461.80 152.44
  Q 461.88 144.94 461.24 139.20
  Q 458.28 112.92 450.02 87.70
  Z
  M 326.03 77.39
  C 325.06 71.70 323.37 66.64 320.91 61.42
  A 1.57 1.57 0.0 0 0 319.11 60.57
  L 239.65 80.49
  Q 237.47 81.03 238.02 83.22
  L 245.78 114.04
  Q 246.22 115.77 247.96 115.35
  L 268.87 110.32
  Q 269.39 110.19 269.54 110.71
  Q 285.41 168.55 299.78 226.79
  Q 300.31 228.93 302.52 228.53
  C 308.67 227.41 315.11 224.14 321.40 223.51
  Q 330.26 222.62 337.43 216.58
  A 2.04 2.04 0.0 0 0 338.09 214.50
  L 308.55 101.22
  Q 308.40 100.61 309.00 100.44
  L 327.53 95.25
  A 2.22 2.22 0.0 0 0 329.09 92.63
  C 327.92 87.50 327.11 83.76 326.03 77.39
  Z
  M 201.29 219.96
  C 192.94 220.09 188.55 203.70 186.58 196.04
  Q 175.30 152.23 164.42 108.31
  C 162.84 101.94 157.41 103.14 152.32 104.85
  Q 148.00 106.30 143.59 107.47
  C 132.83 110.33 124.64 106.35 128.51 122.66
  C 136.07 154.57 144.73 186.04 153.71 217.64
  C 158.93 236.03 166.89 253.91 188.34 255.15
  Q 194.89 255.52 208.12 252.73
  C 219.86 250.25 232.35 247.35 243.20 241.70
  C 255.67 235.19 257.27 221.69 256.42 209.18
  Q 255.43 194.67 251.99 180.57
  Q 241.86 138.97 231.64 97.43
  C 230.67 93.51 229.02 90.19 225.22 89.18
  Q 222.92 88.56 217.93 89.94
  C 211.18 91.80 203.82 92.66 197.32 95.11
  C 194.52 96.16 192.92 98.02 193.20 101.00
  C 193.63 105.53 194.84 112.21 196.36 117.58
  Q 208.33 159.85 216.29 194.49
  Q 217.73 200.74 218.02 208.97
  C 218.33 217.52 208.05 219.85 201.29 219.96
  Z
  M 121.04 274.52
  C 126.10 273.01 133.21 272.17 131.28 264.99
  Q 117.13 212.43 102.20 158.24
  A 2.13 2.13 0.0 0 1 103.74 155.60
  L 123.98 150.58
  A 1.14 1.14 0.0 0 0 124.84 149.36
  C 123.93 140.43 121.73 132.42 118.68 123.94
  C 117.34 120.22 116.63 115.68 114.31 112.16
  A 0.74 0.72 65.8 0 0 113.52 111.85
  Q 62.15 124.77 34.82 131.83
  Q 32.10 132.53 29.27 134.26
  Q 28.85 134.51 28.69 134.98
  Q 27.80 137.57 28.44 140.06
  Q 30.95 149.65 35.30 164.19
  Q 36.80 169.19 38.98 172.25
  A 0.83 0.83 0.0 0 0 39.86 172.57
  L 60.32 166.96
  A 3.78 3.78 0.0 0 1 64.97 169.64
  Q 71.51 194.23 77.46 219.51
  Q 77.50 219.67 77.70 219.85
  Q 77.98 220.10 78.05 220.47
  Q 81.00 235.90 85.28 251.02
  C 87.91 260.31 89.84 269.80 92.42 278.97
  A 2.84 2.84 0.0 0 0 95.75 280.98
  Q 108.97 278.13 121.04 274.52
  Z
  M 411.53 370.71
  C 420.44 368.44 431.81 366.45 441.84 363.77
  A 2.06 2.05 -8.7 0 0 443.36 361.71
  C 443.03 352.86 440.30 344.73 437.67 336.37
  Q 437.52 335.90 437.09 335.67
  Q 436.50 335.35 436.41 334.78
  C 435.46 328.86 431.93 330.38 427.38 331.46
  Q 421.29 332.90 415.25 334.51
  Q 414.55 334.70 413.66 334.33
  Q 413.25 334.16 412.83 334.27
  L 402.57 336.92
  Q 400.93 337.35 400.48 335.71
  L 369.50 224.06
  A 3.75 3.75 0.0 0 0 364.92 221.45
  C 362.04 222.22 359.17 222.50 356.36 223.41
  Q 348.50 225.96 340.52 228.12
  C 337.55 228.93 334.85 230.48 331.80 231.46
  A 1.29 1.27 -83.7 0 0 331.07 232.05
  Q 329.97 234.02 330.50 235.75
  Q 352.15 306.82 369.80 378.99
  Q 370.46 381.68 372.76 381.04
  Q 392.09 375.67 411.53 370.71
  Z
  M 316.17 382.36
  Q 317.87 386.47 320.18 390.31
  A 2.68 2.67 -14.2 0 0 322.36 391.60
  C 332.06 392.03 340.61 389.47 352.45 386.01
  C 354.69 385.36 356.54 384.48 358.38 383.28
  A 1.47 1.46 59.9 0 0 358.88 381.38
  Q 343.74 352.06 328.83 322.47
  C 326.09 317.05 321.84 310.34 318.93 303.97
  C 309.53 283.42 298.80 263.43 288.34 243.00
  A 3.12 3.12 0.0 0 0 284.84 241.39
  Q 269.09 245.14 252.42 249.12
  Q 250.74 249.52 246.13 252.13
  C 243.86 253.42 241.67 253.73 239.22 254.53
  C 236.66 255.36 237.31 256.88 237.30 258.98
  C 237.25 270.59 238.28 283.73 238.49 293.69
  Q 239.76 352.66 242.28 411.61
  Q 242.30 412.13 242.78 412.33
  C 245.32 413.41 247.19 411.74 249.25 412.47
  Q 249.68 412.62 250.11 412.51
  L 266.82 408.12
  Q 267.29 407.99 267.56 407.58
  Q 267.87 407.13 268.75 406.97
  Q 274.37 405.98 280.13 401.86
  Q 281.49 400.89 281.45 399.94
  Q 280.93 388.19 280.71 376.44
  Q 280.70 375.93 281.19 375.80
  L 308.18 368.64
  Q 308.69 368.51 308.93 368.97
  L 315.72 382.02
  Q 315.81 382.19 315.81 382.19
  Q 315.95 382.23 316.09 382.28
  Q 316.15 382.30 316.17 382.36
  Z
  M 215.83 421.12
  C 219.08 419.86 234.37 416.70 232.87 411.47
  C 219.32 364.29 205.54 317.14 193.70 269.51
  A 0.99 0.97 82.5 0 0 192.74 268.76
  C 181.82 268.80 167.73 273.46 157.37 277.03
  Q 156.88 277.20 156.74 277.69
  Q 156.21 279.44 156.70 281.27
  Q 175.87 352.79 196.08 422.96
  Q 196.59 424.75 198.46 424.67
  Q 207.72 424.28 215.83 421.12
  Z
  M 113.06 393.35
  A 0.14 0.14 0.0 0 1 113.32 393.30
  Q 126.84 413.69 140.77 433.71
  Q 143.28 437.32 147.29 439.96
  Q 147.71 440.24 148.20 440.12
  Q 161.36 437.03 166.79 435.02
  C 172.95 432.74 178.98 432.00 182.43 427.45
  A 1.24 1.21 58.8 0 0 182.66 426.48
  Q 182.16 423.76 179.78 420.46
  Q 160.26 393.38 140.73 366.29
  Q 140.39 365.82 140.85 365.47
  Q 141.87 364.67 143.57 363.58
  Q 159.48 353.40 159.20 333.94
  C 158.95 315.92 150.07 287.64 128.80 284.38
  Q 125.71 283.91 121.43 284.96
  Q 109.37 287.93 97.31 290.89
  C 93.47 291.84 90.42 289.81 86.57 290.80
  C 79.19 292.70 72.23 294.79 65.15 297.43
  Q 56.56 300.63 47.97 303.26
  Q 46.61 303.68 46.70 305.11
  Q 46.90 308.17 47.72 311.19
  Q 66.00 378.33 84.87 445.31
  C 85.49 447.51 86.70 449.34 87.66 451.37
  A 3.07 3.07 0.0 0 0 91.19 453.04
  Q 106.03 449.26 121.72 445.07
  C 124.61 444.30 126.78 442.37 125.74 439.29
  C 119.99 422.28 117.13 410.84 113.22 396.26
  Q 112.83 394.81 113.06 393.35
  Z"
/>
<path fill="#2e7747" d="
  M 450.02 87.70
  Q 458.28 112.92 461.24 139.20
  Q 461.88 144.94 461.80 152.44
  C 461.74 158.32 462.17 164.74 461.02 170.09
  Q 457.68 185.69 444.35 193.54
  C 438.06 197.24 427.46 199.32 420.70 200.70
  C 419.47 200.95 417.93 200.58 416.45 201.05
  C 403.43 205.22 382.61 205.28 372.37 194.44
  C 365.48 187.15 360.29 177.30 356.66 168.32
  C 347.27 145.10 343.02 125.57 339.48 101.99
  C 338.30 94.08 337.56 81.48 339.88 73.81
  C 341.08 69.84 342.78 62.58 346.10 59.96
  C 361.99 47.38 384.29 41.51 404.29 39.91
  C 419.86 38.67 436.90 52.47 442.25 66.11
  Q 446.44 76.79 450.02 87.70
  Z
  M 390.87 81.20
  C 380.54 84.68 375.77 88.24 377.66 100.26
  C 379.19 110.06 390.59 167.91 406.24 164.25
  C 418.77 161.32 428.90 160.86 425.09 144.48
  Q 420.08 122.94 414.55 101.53
  Q 411.83 90.99 407.47 84.31
  C 403.45 78.13 397.04 79.12 390.87 81.20
  Z"
/>
<path fill="#2e7747" d="
  M 320.91 61.42
  C 323.37 66.64 325.06 71.70 326.03 77.39
  C 327.11 83.76 327.92 87.50 329.09 92.63
  A 2.22 2.22 0.0 0 1 327.53 95.25
  L 309.00 100.44
  Q 308.40 100.61 308.55 101.22
  L 338.09 214.50
  A 2.04 2.04 0.0 0 1 337.43 216.58
  Q 330.26 222.62 321.40 223.51
  C 315.11 224.14 308.67 227.41 302.52 228.53
  Q 300.31 228.93 299.78 226.79
  Q 285.41 168.55 269.54 110.71
  Q 269.39 110.19 268.87 110.32
  L 247.96 115.35
  Q 246.22 115.77 245.78 114.04
  L 238.02 83.22
  Q 237.47 81.03 239.65 80.49
  L 319.11 60.57
  A 1.57 1.57 0.0 0 1 320.91 61.42
  Z"
/>
<path fill="#f0f0f0" d="
  M 377.66 100.26
  C 375.77 88.24 380.54 84.68 390.87 81.20
  C 397.04 79.12 403.45 78.13 407.47 84.31
  Q 411.83 90.99 414.55 101.53
  Q 420.08 122.94 425.09 144.48
  C 428.90 160.86 418.77 161.32 406.24 164.25
  C 390.59 167.91 379.19 110.06 377.66 100.26
  Z"
/>
<path fill="#2e7747" d="
  M 201.29 219.96
  C 208.05 219.85 218.33 217.52 218.02 208.97
  Q 217.73 200.74 216.29 194.49
  Q 208.33 159.85 196.36 117.58
  C 194.84 112.21 193.63 105.53 193.20 101.00
  C 192.92 98.02 194.52 96.16 197.32 95.11
  C 203.82 92.66 211.18 91.80 217.93 89.94
  Q 222.92 88.56 225.22 89.18
  C 229.02 90.19 230.67 93.51 231.64 97.43
  Q 241.86 138.97 251.99 180.57
  Q 255.43 194.67 256.42 209.18
  C 257.27 221.69 255.67 235.19 243.20 241.70
  C 232.35 247.35 219.86 250.25 208.12 252.73
  Q 194.89 255.52 188.34 255.15
  C 166.89 253.91 158.93 236.03 153.71 217.64
  C 144.73 186.04 136.07 154.57 128.51 122.66
  C 124.64 106.35 132.83 110.33 143.59 107.47
  Q 148.00 106.30 152.32 104.85
  C 157.41 103.14 162.84 101.94 164.42 108.31
  Q 175.30 152.23 186.58 196.04
  C 188.55 203.70 192.94 220.09 201.29 219.96
  Z"
/>
<path fill="#2e7747" d="
  M 121.04 274.52
  Q 108.97 278.13 95.75 280.98
  A 2.84 2.84 0.0 0 1 92.42 278.97
  C 89.84 269.80 87.91 260.31 85.28 251.02
  Q 81.00 235.90 78.05 220.47
  Q 77.98 220.10 77.70 219.85
  Q 77.50 219.67 77.46 219.51
  Q 71.51 194.23 64.97 169.64
  A 3.78 3.78 0.0 0 0 60.32 166.96
  L 39.86 172.57
  A 0.83 0.83 0.0 0 1 38.98 172.25
  Q 36.80 169.19 35.30 164.19
  Q 30.95 149.65 28.44 140.06
  Q 27.80 137.57 28.69 134.98
  Q 28.85 134.51 29.27 134.26
  Q 32.10 132.53 34.82 131.83
  Q 62.15 124.77 113.52 111.85
  A 0.74 0.72 65.8 0 1 114.31 112.16
  C 116.63 115.68 117.34 120.22 118.68 123.94
  C 121.73 132.42 123.93 140.43 124.84 149.36
  A 1.14 1.14 0.0 0 1 123.98 150.58
  L 103.74 155.60
  A 2.13 2.13 0.0 0 0 102.20 158.24
  Q 117.13 212.43 131.28 264.99
  C 133.21 272.17 126.10 273.01 121.04 274.52
  Z"
/>
<path fill="#475399" d="
  M 411.53 370.71
  Q 392.09 375.67 372.76 381.04
  Q 370.46 381.68 369.80 378.99
  Q 352.15 306.82 330.50 235.75
  Q 329.97 234.02 331.07 232.05
  A 1.29 1.27 -83.7 0 1 331.80 231.46
  C 334.85 230.48 337.55 228.93 340.52 228.12
  Q 348.50 225.96 356.36 223.41
  C 359.17 222.50 362.04 222.22 364.92 221.45
  A 3.75 3.75 0.0 0 1 369.50 224.06
  L 400.48 335.71
  Q 400.93 337.35 402.57 336.92
  L 412.83 334.27
  Q 413.25 334.16 413.66 334.33
  Q 414.55 334.70 415.25 334.51
  Q 421.29 332.90 427.38 331.46
  C 431.93 330.38 435.46 328.86 436.41 334.78
  Q 436.50 335.35 437.09 335.67
  Q 437.52 335.90 437.67 336.37
  C 440.30 344.73 443.03 352.86 443.36 361.71
  A 2.06 2.05 -8.7 0 1 441.84 363.77
  C 431.81 366.45 420.44 368.44 411.53 370.71
  Z"
/>
<path fill="#475399" d="
  M 316.09 382.28
  Q 315.95 382.23 315.81 382.19
  Q 315.81 382.19 315.72 382.02
  L 308.93 368.97
  Q 308.69 368.51 308.18 368.64
  L 281.19 375.80
  Q 280.70 375.93 280.71 376.44
  Q 280.93 388.19 281.45 399.94
  Q 281.49 400.89 280.13 401.86
  Q 274.37 405.98 268.75 406.97
  Q 267.87 407.13 267.56 407.58
  Q 267.29 407.99 266.82 408.12
  L 250.11 412.51
  Q 249.68 412.62 249.25 412.47
  C 247.19 411.74 245.32 413.41 242.78 412.33
  Q 242.30 412.13 242.28 411.61
  Q 239.76 352.66 238.49 293.69
  C 238.28 283.73 237.25 270.59 237.30 258.98
  C 237.31 256.88 236.66 255.36 239.22 254.53
  C 241.67 253.73 243.86 253.42 246.13 252.13
  Q 250.74 249.52 252.42 249.12
  Q 269.09 245.14 284.84 241.39
  A 3.12 3.12 0.0 0 1 288.34 243.00
  C 298.80 263.43 309.53 283.42 318.93 303.97
  C 321.84 310.34 326.09 317.05 328.83 322.47
  Q 343.74 352.06 358.88 381.38
  A 1.47 1.46 59.9 0 1 358.38 383.28
  C 356.54 384.48 354.69 385.36 352.45 386.01
  C 340.61 389.47 332.06 392.03 322.36 391.60
  A 2.68 2.67 -14.2 0 1 320.18 390.31
  Q 317.87 386.47 316.17 382.36
  Q 316.15 382.30 316.09 382.28
  Z
  M 279.02 345.93
  A 0.35 0.35 0.0 0 0 279.46 346.26
  L 295.14 342.23
  A 0.35 0.35 0.0 0 0 295.37 341.74
  L 277.84 306.02
  A 0.35 0.35 0.0 0 0 277.18 306.19
  L 279.02 345.93
  Z"
/>
<path fill="#475399" d="
  M 215.83 421.12
  Q 207.72 424.28 198.46 424.67
  Q 196.59 424.75 196.08 422.96
  Q 175.87 352.79 156.70 281.27
  Q 156.21 279.44 156.74 277.69
  Q 156.88 277.20 157.37 277.03
  C 167.73 273.46 181.82 268.80 192.74 268.76
  A 0.99 0.97 82.5 0 1 193.70 269.51
  C 205.54 317.14 219.32 364.29 232.87 411.47
  C 234.37 416.70 219.08 419.86 215.83 421.12
  Z"
/>
<path fill="#475399" d="
  M 113.06 393.35
  Q 112.83 394.81 113.22 396.26
  C 117.13 410.84 119.99 422.28 125.74 439.29
  C 126.78 442.37 124.61 444.30 121.72 445.07
  Q 106.03 449.26 91.19 453.04
  A 3.07 3.07 0.0 0 1 87.66 451.37
  C 86.70 449.34 85.49 447.51 84.87 445.31
  Q 66.00 378.33 47.72 311.19
  Q 46.90 308.17 46.70 305.11
  Q 46.61 303.68 47.97 303.26
  Q 56.56 300.63 65.15 297.43
  C 72.23 294.79 79.19 292.70 86.57 290.80
  C 90.42 289.81 93.47 291.84 97.31 290.89
  Q 109.37 287.93 121.43 284.96
  Q 125.71 283.91 128.80 284.38
  C 150.07 287.64 158.95 315.92 159.20 333.94
  Q 159.48 353.40 143.57 363.58
  Q 141.87 364.67 140.85 365.47
  Q 140.39 365.82 140.73 366.29
  Q 160.26 393.38 179.78 420.46
  Q 182.16 423.76 182.66 426.48
  A 1.24 1.21 58.8 0 1 182.43 427.45
  C 178.98 432.00 172.95 432.74 166.79 435.02
  Q 161.36 437.03 148.20 440.12
  Q 147.71 440.24 147.29 439.96
  Q 143.28 437.32 140.77 433.71
  Q 126.84 413.69 113.32 393.30
  A 0.14 0.14 0.0 0 0 113.06 393.35
  Z
  M 101.41 353.79
  C 109.04 353.11 119.30 348.41 122.97 341.15
  Q 124.16 338.78 124.01 337.50
  C 122.88 328.23 119.05 318.29 109.37 316.25
  C 103.90 315.09 96.39 318.00 91.00 319.73
  Q 90.55 319.88 90.68 320.34
  L 99.93 352.78
  A 1.42 1.41 -10.5 0 0 101.41 353.79
  Z"
/>
<path fill="#f0f0f0" d="
  M 279.02 345.93
  L 277.18 306.19
  A 0.35 0.35 0.0 0 1 277.84 306.02
  L 295.37 341.74
  A 0.35 0.35 0.0 0 1 295.14 342.23
  L 279.46 346.26
  A 0.35 0.35 0.0 0 1 279.02 345.93
  Z"
/>
<path fill="#f0f0f0" d="
  M 101.41 353.79
  A 1.42 1.41 -10.5 0 1 99.93 352.78
  L 90.68 320.34
  Q 90.55 319.88 91.00 319.73
  C 96.39 318.00 103.90 315.09 109.37 316.25
  C 119.05 318.29 122.88 328.23 124.01 337.50
  Q 124.16 338.78 122.97 341.15
  C 119.30 348.41 109.04 353.11 101.41 353.79
  Z"
/>
</svg>
